<?xml version="1.0" encoding="utf-8" standalone="no"?>
<!DOCTYPE svg PUBLIC "-//W3C//DTD SVG 1.1//EN"
  "http://www.w3.org/Graphics/SVG/1.1/DTD/svg11.dtd">
<svg xmlns:xlink="http://www.w3.org/1999/xlink" width="507.758875pt" height="413.648562pt" viewBox="0 0 507.758875 413.648562" xmlns="http://www.w3.org/2000/svg" version="1.1">
 <metadata>
  <rdf:RDF xmlns:dc="http://purl.org/dc/elements/1.1/" xmlns:cc="http://creativecommons.org/ns#" xmlns:rdf="http://www.w3.org/1999/02/22-rdf-syntax-ns#">
   <cc:Work>
    <dc:type rdf:resource="http://purl.org/dc/dcmitype/StillImage"/>
    <dc:date>2025-05-23T20:57:37.973889</dc:date>
    <dc:format>image/svg+xml</dc:format>
    <dc:creator>
     <cc:Agent>
      <dc:title>Matplotlib v3.10.1, https://matplotlib.org/</dc:title>
     </cc:Agent>
    </dc:creator>
   </cc:Work>
  </rdf:RDF>
 </metadata>
 <defs>
  <style type="text/css">*{stroke-linejoin: round; stroke-linecap: butt}</style>
 </defs>
 <g id="figure_1">
  <g id="patch_1">
   <path d="M 0 413.648562 
L 507.758875 413.648562 
L 507.758875 0 
L 0 0 
z
" style="fill: #ffffff"/>
  </g>
  <g id="axes_1">
   <g id="patch_2">
    <path d="M 56.389375 368.349812 
L 356.901375 368.349812 
L 356.901375 67.837812 
L 56.389375 67.837812 
z
" style="fill: #ffffff"/>
   </g>
   <g id="PathCollection_1">
    <defs>
     <path id="mf90a040284" d="M 0 5 
C 1.326016 5 2.597899 4.473168 3.535534 3.535534 
C 4.473168 2.597899 5 1.326016 5 0 
C 5 -1.326016 4.473168 -2.597899 3.535534 -3.535534 
C 2.597899 -4.473168 1.326016 -5 0 -5 
C -1.326016 -5 -2.597899 -4.473168 -3.535534 -3.535534 
C -4.473168 -2.597899 -5 -1.326016 -5 0 
C -5 1.326016 -4.473168 2.597899 -3.535534 3.535534 
C -2.597899 4.473168 -1.326016 5 0 5 
z
" style="stroke: #1f77b4; stroke-opacity: 0.6"/>
    </defs>
    <g clip-path="url(#peefba5136b)">
     <use xlink:href="#mf90a040284" x="212.517109" y="97.625464" style="fill: #1f77b4; fill-opacity: 0.6; stroke: #1f77b4; stroke-opacity: 0.6"/>
     <use xlink:href="#mf90a040284" x="212.517109" y="97.625464" style="fill: #1f77b4; fill-opacity: 0.6; stroke: #1f77b4; stroke-opacity: 0.6"/>
     <use xlink:href="#mf90a040284" x="221.802408" y="97.625464" style="fill: #1f77b4; fill-opacity: 0.6; stroke: #1f77b4; stroke-opacity: 0.6"/>
     <use xlink:href="#mf90a040284" x="258.029146" y="95.270401" style="fill: #1f77b4; fill-opacity: 0.6; stroke: #1f77b4; stroke-opacity: 0.6"/>
     <use xlink:href="#mf90a040284" x="258.029146" y="98.525886" style="fill: #1f77b4; fill-opacity: 0.6; stroke: #1f77b4; stroke-opacity: 0.6"/>
     <use xlink:href="#mf90a040284" x="258.029146" y="98.525886" style="fill: #1f77b4; fill-opacity: 0.6; stroke: #1f77b4; stroke-opacity: 0.6"/>
     <use xlink:href="#mf90a040284" x="258.029146" y="98.525886" style="fill: #1f77b4; fill-opacity: 0.6; stroke: #1f77b4; stroke-opacity: 0.6"/>
     <use xlink:href="#mf90a040284" x="258.029146" y="98.525886" style="fill: #1f77b4; fill-opacity: 0.6; stroke: #1f77b4; stroke-opacity: 0.6"/>
     <use xlink:href="#mf90a040284" x="271.9399" y="97.625464" style="fill: #1f77b4; fill-opacity: 0.6; stroke: #1f77b4; stroke-opacity: 0.6"/>
     <use xlink:href="#mf90a040284" x="281.533747" y="97.625464" style="fill: #1f77b4; fill-opacity: 0.6; stroke: #1f77b4; stroke-opacity: 0.6"/>
     <use xlink:href="#mf90a040284" x="283.959597" y="97.625464" style="fill: #1f77b4; fill-opacity: 0.6; stroke: #1f77b4; stroke-opacity: 0.6"/>
     <use xlink:href="#mf90a040284" x="308.410328" y="95.270401" style="fill: #1f77b4; fill-opacity: 0.6; stroke: #1f77b4; stroke-opacity: 0.6"/>
     <use xlink:href="#mf90a040284" x="308.410328" y="98.525886" style="fill: #1f77b4; fill-opacity: 0.6; stroke: #1f77b4; stroke-opacity: 0.6"/>
     <use xlink:href="#mf90a040284" x="308.410328" y="98.525886" style="fill: #1f77b4; fill-opacity: 0.6; stroke: #1f77b4; stroke-opacity: 0.6"/>
     <use xlink:href="#mf90a040284" x="308.410328" y="98.525886" style="fill: #1f77b4; fill-opacity: 0.6; stroke: #1f77b4; stroke-opacity: 0.6"/>
     <use xlink:href="#mf90a040284" x="308.410328" y="98.525886" style="fill: #1f77b4; fill-opacity: 0.6; stroke: #1f77b4; stroke-opacity: 0.6"/>
     <use xlink:href="#mf90a040284" x="324.229987" y="95.270401" style="fill: #1f77b4; fill-opacity: 0.6; stroke: #1f77b4; stroke-opacity: 0.6"/>
     <use xlink:href="#mf90a040284" x="324.229987" y="98.525886" style="fill: #1f77b4; fill-opacity: 0.6; stroke: #1f77b4; stroke-opacity: 0.6"/>
     <use xlink:href="#mf90a040284" x="324.229987" y="98.525886" style="fill: #1f77b4; fill-opacity: 0.6; stroke: #1f77b4; stroke-opacity: 0.6"/>
     <use xlink:href="#mf90a040284" x="324.229987" y="98.525886" style="fill: #1f77b4; fill-opacity: 0.6; stroke: #1f77b4; stroke-opacity: 0.6"/>
     <use xlink:href="#mf90a040284" x="324.229987" y="98.525886" style="fill: #1f77b4; fill-opacity: 0.6; stroke: #1f77b4; stroke-opacity: 0.6"/>
     <use xlink:href="#mf90a040284" x="324.229987" y="95.270401" style="fill: #1f77b4; fill-opacity: 0.6; stroke: #1f77b4; stroke-opacity: 0.6"/>
     <use xlink:href="#mf90a040284" x="324.229987" y="98.525886" style="fill: #1f77b4; fill-opacity: 0.6; stroke: #1f77b4; stroke-opacity: 0.6"/>
     <use xlink:href="#mf90a040284" x="324.229987" y="98.525886" style="fill: #1f77b4; fill-opacity: 0.6; stroke: #1f77b4; stroke-opacity: 0.6"/>
     <use xlink:href="#mf90a040284" x="324.229987" y="98.525886" style="fill: #1f77b4; fill-opacity: 0.6; stroke: #1f77b4; stroke-opacity: 0.6"/>
     <use xlink:href="#mf90a040284" x="324.229987" y="98.525886" style="fill: #1f77b4; fill-opacity: 0.6; stroke: #1f77b4; stroke-opacity: 0.6"/>
     <use xlink:href="#mf90a040284" x="343.241739" y="95.270401" style="fill: #1f77b4; fill-opacity: 0.6; stroke: #1f77b4; stroke-opacity: 0.6"/>
     <use xlink:href="#mf90a040284" x="343.241739" y="98.525886" style="fill: #1f77b4; fill-opacity: 0.6; stroke: #1f77b4; stroke-opacity: 0.6"/>
     <use xlink:href="#mf90a040284" x="343.241739" y="98.525886" style="fill: #1f77b4; fill-opacity: 0.6; stroke: #1f77b4; stroke-opacity: 0.6"/>
     <use xlink:href="#mf90a040284" x="343.241739" y="98.525886" style="fill: #1f77b4; fill-opacity: 0.6; stroke: #1f77b4; stroke-opacity: 0.6"/>
     <use xlink:href="#mf90a040284" x="343.241739" y="98.525886" style="fill: #1f77b4; fill-opacity: 0.6; stroke: #1f77b4; stroke-opacity: 0.6"/>
    </g>
   </g>
   <g id="PathCollection_2">
    <defs>
     <path id="m27f85ed5e4" d="M 0 5 
C 1.326016 5 2.597899 4.473168 3.535534 3.535534 
C 4.473168 2.597899 5 1.326016 5 0 
C 5 -1.326016 4.473168 -2.597899 3.535534 -3.535534 
C 2.597899 -4.473168 1.326016 -5 0 -5 
C -1.326016 -5 -2.597899 -4.473168 -3.535534 -3.535534 
C -4.473168 -2.597899 -5 -1.326016 -5 0 
C -5 1.326016 -4.473168 2.597899 -3.535534 3.535534 
C -2.597899 4.473168 -1.326016 5 0 5 
z
" style="stroke: #8c564b; stroke-opacity: 0.6"/>
    </defs>
    <g clip-path="url(#peefba5136b)"/>
   </g>
   <g id="PathCollection_3">
    <defs>
     <path id="mc5c704dbf4" d="M -5 5 
L 5 -5 
M -5 -5 
L 5 5 
" style="stroke: #1f77b4; stroke-opacity: 0.6; stroke-width: 1.5"/>
    </defs>
    <g clip-path="url(#peefba5136b)">
     <use xlink:href="#mc5c704dbf4" x="212.517109" y="96.956832" style="fill: #1f77b4; fill-opacity: 0.6; stroke: #1f77b4; stroke-opacity: 0.6; stroke-width: 1.5"/>
     <use xlink:href="#mc5c704dbf4" x="212.517109" y="96.956832" style="fill: #1f77b4; fill-opacity: 0.6; stroke: #1f77b4; stroke-opacity: 0.6; stroke-width: 1.5"/>
     <use xlink:href="#mc5c704dbf4" x="221.802408" y="96.956832" style="fill: #1f77b4; fill-opacity: 0.6; stroke: #1f77b4; stroke-opacity: 0.6; stroke-width: 1.5"/>
     <use xlink:href="#mc5c704dbf4" x="258.029146" y="98.525886" style="fill: #1f77b4; fill-opacity: 0.6; stroke: #1f77b4; stroke-opacity: 0.6; stroke-width: 1.5"/>
     <use xlink:href="#mc5c704dbf4" x="258.029146" y="98.525886" style="fill: #1f77b4; fill-opacity: 0.6; stroke: #1f77b4; stroke-opacity: 0.6; stroke-width: 1.5"/>
     <use xlink:href="#mc5c704dbf4" x="258.029146" y="98.525886" style="fill: #1f77b4; fill-opacity: 0.6; stroke: #1f77b4; stroke-opacity: 0.6; stroke-width: 1.5"/>
     <use xlink:href="#mc5c704dbf4" x="258.029146" y="98.525886" style="fill: #1f77b4; fill-opacity: 0.6; stroke: #1f77b4; stroke-opacity: 0.6; stroke-width: 1.5"/>
     <use xlink:href="#mc5c704dbf4" x="258.029146" y="98.525886" style="fill: #1f77b4; fill-opacity: 0.6; stroke: #1f77b4; stroke-opacity: 0.6; stroke-width: 1.5"/>
     <use xlink:href="#mc5c704dbf4" x="271.9399" y="96.956832" style="fill: #1f77b4; fill-opacity: 0.6; stroke: #1f77b4; stroke-opacity: 0.6; stroke-width: 1.5"/>
     <use xlink:href="#mc5c704dbf4" x="281.533747" y="96.956832" style="fill: #1f77b4; fill-opacity: 0.6; stroke: #1f77b4; stroke-opacity: 0.6; stroke-width: 1.5"/>
     <use xlink:href="#mc5c704dbf4" x="283.959597" y="96.956832" style="fill: #1f77b4; fill-opacity: 0.6; stroke: #1f77b4; stroke-opacity: 0.6; stroke-width: 1.5"/>
     <use xlink:href="#mc5c704dbf4" x="308.410328" y="98.525886" style="fill: #1f77b4; fill-opacity: 0.6; stroke: #1f77b4; stroke-opacity: 0.6; stroke-width: 1.5"/>
     <use xlink:href="#mc5c704dbf4" x="308.410328" y="98.525886" style="fill: #1f77b4; fill-opacity: 0.6; stroke: #1f77b4; stroke-opacity: 0.6; stroke-width: 1.5"/>
     <use xlink:href="#mc5c704dbf4" x="308.410328" y="98.525886" style="fill: #1f77b4; fill-opacity: 0.6; stroke: #1f77b4; stroke-opacity: 0.6; stroke-width: 1.5"/>
     <use xlink:href="#mc5c704dbf4" x="308.410328" y="98.525886" style="fill: #1f77b4; fill-opacity: 0.6; stroke: #1f77b4; stroke-opacity: 0.6; stroke-width: 1.5"/>
     <use xlink:href="#mc5c704dbf4" x="308.410328" y="98.525886" style="fill: #1f77b4; fill-opacity: 0.6; stroke: #1f77b4; stroke-opacity: 0.6; stroke-width: 1.5"/>
     <use xlink:href="#mc5c704dbf4" x="324.229987" y="98.525886" style="fill: #1f77b4; fill-opacity: 0.6; stroke: #1f77b4; stroke-opacity: 0.6; stroke-width: 1.5"/>
     <use xlink:href="#mc5c704dbf4" x="324.229987" y="98.525886" style="fill: #1f77b4; fill-opacity: 0.6; stroke: #1f77b4; stroke-opacity: 0.6; stroke-width: 1.5"/>
     <use xlink:href="#mc5c704dbf4" x="324.229987" y="98.525886" style="fill: #1f77b4; fill-opacity: 0.6; stroke: #1f77b4; stroke-opacity: 0.6; stroke-width: 1.5"/>
     <use xlink:href="#mc5c704dbf4" x="324.229987" y="98.525886" style="fill: #1f77b4; fill-opacity: 0.6; stroke: #1f77b4; stroke-opacity: 0.6; stroke-width: 1.5"/>
     <use xlink:href="#mc5c704dbf4" x="324.229987" y="98.525886" style="fill: #1f77b4; fill-opacity: 0.6; stroke: #1f77b4; stroke-opacity: 0.6; stroke-width: 1.5"/>
     <use xlink:href="#mc5c704dbf4" x="324.229987" y="98.525886" style="fill: #1f77b4; fill-opacity: 0.6; stroke: #1f77b4; stroke-opacity: 0.6; stroke-width: 1.5"/>
     <use xlink:href="#mc5c704dbf4" x="324.229987" y="98.525886" style="fill: #1f77b4; fill-opacity: 0.6; stroke: #1f77b4; stroke-opacity: 0.6; stroke-width: 1.5"/>
     <use xlink:href="#mc5c704dbf4" x="324.229987" y="98.525886" style="fill: #1f77b4; fill-opacity: 0.6; stroke: #1f77b4; stroke-opacity: 0.6; stroke-width: 1.5"/>
     <use xlink:href="#mc5c704dbf4" x="324.229987" y="98.525886" style="fill: #1f77b4; fill-opacity: 0.6; stroke: #1f77b4; stroke-opacity: 0.6; stroke-width: 1.5"/>
     <use xlink:href="#mc5c704dbf4" x="324.229987" y="98.525886" style="fill: #1f77b4; fill-opacity: 0.6; stroke: #1f77b4; stroke-opacity: 0.6; stroke-width: 1.5"/>
     <use xlink:href="#mc5c704dbf4" x="343.241739" y="98.525886" style="fill: #1f77b4; fill-opacity: 0.6; stroke: #1f77b4; stroke-opacity: 0.6; stroke-width: 1.5"/>
     <use xlink:href="#mc5c704dbf4" x="343.241739" y="98.525886" style="fill: #1f77b4; fill-opacity: 0.6; stroke: #1f77b4; stroke-opacity: 0.6; stroke-width: 1.5"/>
     <use xlink:href="#mc5c704dbf4" x="343.241739" y="98.525886" style="fill: #1f77b4; fill-opacity: 0.6; stroke: #1f77b4; stroke-opacity: 0.6; stroke-width: 1.5"/>
     <use xlink:href="#mc5c704dbf4" x="343.241739" y="98.525886" style="fill: #1f77b4; fill-opacity: 0.6; stroke: #1f77b4; stroke-opacity: 0.6; stroke-width: 1.5"/>
     <use xlink:href="#mc5c704dbf4" x="343.241739" y="98.525886" style="fill: #1f77b4; fill-opacity: 0.6; stroke: #1f77b4; stroke-opacity: 0.6; stroke-width: 1.5"/>
    </g>
   </g>
   <g id="PathCollection_4">
    <defs>
     <path id="m8d9c08a495" d="M -5 5 
L 5 -5 
M -5 -5 
L 5 5 
" style="stroke: #8c564b; stroke-opacity: 0.6; stroke-width: 1.5"/>
    </defs>
    <g clip-path="url(#peefba5136b)"/>
   </g>
   <g id="matplotlib.axis_1">
    <g id="xtick_1">
     <g id="line2d_1">
      <defs>
       <path id="me4ceb22840" d="M 0 0 
L 0 3.5 
" style="stroke: #000000; stroke-width: 1.5"/>
      </defs>
      <g>
       <use xlink:href="#me4ceb22840" x="149.567612" y="368.349812" style="stroke: #000000; stroke-width: 1.5"/>
      </g>
     </g>
     <g id="text_1">
      <!-- $\mathdefault{10^{1}}$ -->
      <g transform="translate(137.247612 385.987625) scale(0.14 -0.14)">
       <defs>
        <path id="DejaVuSans-31" d="M 794 531 
L 1825 531 
L 1825 4091 
L 703 3866 
L 703 4441 
L 1819 4666 
L 2450 4666 
L 2450 531 
L 3481 531 
L 3481 0 
L 794 0 
L 794 531 
z
" transform="scale(0.015625)"/>
        <path id="DejaVuSans-30" d="M 2034 4250 
Q 1547 4250 1301 3770 
Q 1056 3291 1056 2328 
Q 1056 1369 1301 889 
Q 1547 409 2034 409 
Q 2525 409 2770 889 
Q 3016 1369 3016 2328 
Q 3016 3291 2770 3770 
Q 2525 4250 2034 4250 
z
M 2034 4750 
Q 2819 4750 3233 4129 
Q 3647 3509 3647 2328 
Q 3647 1150 3233 529 
Q 2819 -91 2034 -91 
Q 1250 -91 836 529 
Q 422 1150 422 2328 
Q 422 3509 836 4129 
Q 1250 4750 2034 4750 
z
" transform="scale(0.015625)"/>
       </defs>
       <use xlink:href="#DejaVuSans-31" transform="translate(0 0.684375)"/>
       <use xlink:href="#DejaVuSans-30" transform="translate(63.623047 0.684375)"/>
       <use xlink:href="#DejaVuSans-31" transform="translate(128.203125 38.965625) scale(0.7)"/>
      </g>
     </g>
    </g>
    <g id="xtick_2">
     <g id="line2d_2">
      <g>
       <use xlink:href="#me4ceb22840" x="331.089435" y="368.349812" style="stroke: #000000; stroke-width: 1.5"/>
      </g>
     </g>
     <g id="text_2">
      <!-- $\mathdefault{10^{2}}$ -->
      <g transform="translate(318.769435 385.987625) scale(0.14 -0.14)">
       <defs>
        <path id="DejaVuSans-32" d="M 1228 531 
L 3431 531 
L 3431 0 
L 469 0 
L 469 531 
Q 828 903 1448 1529 
Q 2069 2156 2228 2338 
Q 2531 2678 2651 2914 
Q 2772 3150 2772 3378 
Q 2772 3750 2511 3984 
Q 2250 4219 1831 4219 
Q 1534 4219 1204 4116 
Q 875 4013 500 3803 
L 500 4441 
Q 881 4594 1212 4672 
Q 1544 4750 1819 4750 
Q 2544 4750 2975 4387 
Q 3406 4025 3406 3419 
Q 3406 3131 3298 2873 
Q 3191 2616 2906 2266 
Q 2828 2175 2409 1742 
Q 1991 1309 1228 531 
z
" transform="scale(0.015625)"/>
       </defs>
       <use xlink:href="#DejaVuSans-31" transform="translate(0 0.765625)"/>
       <use xlink:href="#DejaVuSans-30" transform="translate(63.623047 0.765625)"/>
       <use xlink:href="#DejaVuSans-32" transform="translate(128.203125 39.046875) scale(0.7)"/>
      </g>
     </g>
    </g>
    <g id="xtick_3">
     <g id="line2d_3">
      <defs>
       <path id="m073ed6805b" d="M 0 0 
L 0 2 
" style="stroke: #000000; stroke-width: 1.5"/>
      </defs>
      <g>
       <use xlink:href="#m073ed6805b" x="77.332817" y="368.349812" style="stroke: #000000; stroke-width: 1.5"/>
      </g>
     </g>
    </g>
    <g id="xtick_4">
     <g id="line2d_4">
      <g>
       <use xlink:href="#m073ed6805b" x="94.924099" y="368.349812" style="stroke: #000000; stroke-width: 1.5"/>
      </g>
     </g>
    </g>
    <g id="xtick_5">
     <g id="line2d_5">
      <g>
       <use xlink:href="#m073ed6805b" x="109.297223" y="368.349812" style="stroke: #000000; stroke-width: 1.5"/>
      </g>
     </g>
    </g>
    <g id="xtick_6">
     <g id="line2d_6">
      <g>
       <use xlink:href="#m073ed6805b" x="121.449526" y="368.349812" style="stroke: #000000; stroke-width: 1.5"/>
      </g>
     </g>
    </g>
    <g id="xtick_7">
     <g id="line2d_7">
      <g>
       <use xlink:href="#m073ed6805b" x="131.97633" y="368.349812" style="stroke: #000000; stroke-width: 1.5"/>
      </g>
     </g>
    </g>
    <g id="xtick_8">
     <g id="line2d_8">
      <g>
       <use xlink:href="#m073ed6805b" x="141.261629" y="368.349812" style="stroke: #000000; stroke-width: 1.5"/>
      </g>
     </g>
    </g>
    <g id="xtick_9">
     <g id="line2d_9">
      <g>
       <use xlink:href="#m073ed6805b" x="204.211126" y="368.349812" style="stroke: #000000; stroke-width: 1.5"/>
      </g>
     </g>
    </g>
    <g id="xtick_10">
     <g id="line2d_10">
      <g>
       <use xlink:href="#m073ed6805b" x="236.175532" y="368.349812" style="stroke: #000000; stroke-width: 1.5"/>
      </g>
     </g>
    </g>
    <g id="xtick_11">
     <g id="line2d_11">
      <g>
       <use xlink:href="#m073ed6805b" x="258.85464" y="368.349812" style="stroke: #000000; stroke-width: 1.5"/>
      </g>
     </g>
    </g>
    <g id="xtick_12">
     <g id="line2d_12">
      <g>
       <use xlink:href="#m073ed6805b" x="276.445922" y="368.349812" style="stroke: #000000; stroke-width: 1.5"/>
      </g>
     </g>
    </g>
    <g id="xtick_13">
     <g id="line2d_13">
      <g>
       <use xlink:href="#m073ed6805b" x="290.819046" y="368.349812" style="stroke: #000000; stroke-width: 1.5"/>
      </g>
     </g>
    </g>
    <g id="xtick_14">
     <g id="line2d_14">
      <g>
       <use xlink:href="#m073ed6805b" x="302.971349" y="368.349812" style="stroke: #000000; stroke-width: 1.5"/>
      </g>
     </g>
    </g>
    <g id="xtick_15">
     <g id="line2d_15">
      <g>
       <use xlink:href="#m073ed6805b" x="313.498153" y="368.349812" style="stroke: #000000; stroke-width: 1.5"/>
      </g>
     </g>
    </g>
    <g id="xtick_16">
     <g id="line2d_16">
      <g>
       <use xlink:href="#m073ed6805b" x="322.783452" y="368.349812" style="stroke: #000000; stroke-width: 1.5"/>
      </g>
     </g>
    </g>
    <g id="text_3">
     <!-- Log10 of Actual Values -->
     <g transform="translate(127.011625 403.537) scale(0.14 -0.14)">
      <defs>
       <path id="DejaVuSans-4c" d="M 628 4666 
L 1259 4666 
L 1259 531 
L 3531 531 
L 3531 0 
L 628 0 
L 628 4666 
z
" transform="scale(0.015625)"/>
       <path id="DejaVuSans-6f" d="M 1959 3097 
Q 1497 3097 1228 2736 
Q 959 2375 959 1747 
Q 959 1119 1226 758 
Q 1494 397 1959 397 
Q 2419 397 2687 759 
Q 2956 1122 2956 1747 
Q 2956 2369 2687 2733 
Q 2419 3097 1959 3097 
z
M 1959 3584 
Q 2709 3584 3137 3096 
Q 3566 2609 3566 1747 
Q 3566 888 3137 398 
Q 2709 -91 1959 -91 
Q 1206 -91 779 398 
Q 353 888 353 1747 
Q 353 2609 779 3096 
Q 1206 3584 1959 3584 
z
" transform="scale(0.015625)"/>
       <path id="DejaVuSans-67" d="M 2906 1791 
Q 2906 2416 2648 2759 
Q 2391 3103 1925 3103 
Q 1463 3103 1205 2759 
Q 947 2416 947 1791 
Q 947 1169 1205 825 
Q 1463 481 1925 481 
Q 2391 481 2648 825 
Q 2906 1169 2906 1791 
z
M 3481 434 
Q 3481 -459 3084 -895 
Q 2688 -1331 1869 -1331 
Q 1566 -1331 1297 -1286 
Q 1028 -1241 775 -1147 
L 775 -588 
Q 1028 -725 1275 -790 
Q 1522 -856 1778 -856 
Q 2344 -856 2625 -561 
Q 2906 -266 2906 331 
L 2906 616 
Q 2728 306 2450 153 
Q 2172 0 1784 0 
Q 1141 0 747 490 
Q 353 981 353 1791 
Q 353 2603 747 3093 
Q 1141 3584 1784 3584 
Q 2172 3584 2450 3431 
Q 2728 3278 2906 2969 
L 2906 3500 
L 3481 3500 
L 3481 434 
z
" transform="scale(0.015625)"/>
       <path id="DejaVuSans-20" transform="scale(0.015625)"/>
       <path id="DejaVuSans-66" d="M 2375 4863 
L 2375 4384 
L 1825 4384 
Q 1516 4384 1395 4259 
Q 1275 4134 1275 3809 
L 1275 3500 
L 2222 3500 
L 2222 3053 
L 1275 3053 
L 1275 0 
L 697 0 
L 697 3053 
L 147 3053 
L 147 3500 
L 697 3500 
L 697 3744 
Q 697 4328 969 4595 
Q 1241 4863 1831 4863 
L 2375 4863 
z
" transform="scale(0.015625)"/>
       <path id="DejaVuSans-41" d="M 2188 4044 
L 1331 1722 
L 3047 1722 
L 2188 4044 
z
M 1831 4666 
L 2547 4666 
L 4325 0 
L 3669 0 
L 3244 1197 
L 1141 1197 
L 716 0 
L 50 0 
L 1831 4666 
z
" transform="scale(0.015625)"/>
       <path id="DejaVuSans-63" d="M 3122 3366 
L 3122 2828 
Q 2878 2963 2633 3030 
Q 2388 3097 2138 3097 
Q 1578 3097 1268 2742 
Q 959 2388 959 1747 
Q 959 1106 1268 751 
Q 1578 397 2138 397 
Q 2388 397 2633 464 
Q 2878 531 3122 666 
L 3122 134 
Q 2881 22 2623 -34 
Q 2366 -91 2075 -91 
Q 1284 -91 818 406 
Q 353 903 353 1747 
Q 353 2603 823 3093 
Q 1294 3584 2113 3584 
Q 2378 3584 2631 3529 
Q 2884 3475 3122 3366 
z
" transform="scale(0.015625)"/>
       <path id="DejaVuSans-74" d="M 1172 4494 
L 1172 3500 
L 2356 3500 
L 2356 3053 
L 1172 3053 
L 1172 1153 
Q 1172 725 1289 603 
Q 1406 481 1766 481 
L 2356 481 
L 2356 0 
L 1766 0 
Q 1100 0 847 248 
Q 594 497 594 1153 
L 594 3053 
L 172 3053 
L 172 3500 
L 594 3500 
L 594 4494 
L 1172 4494 
z
" transform="scale(0.015625)"/>
       <path id="DejaVuSans-75" d="M 544 1381 
L 544 3500 
L 1119 3500 
L 1119 1403 
Q 1119 906 1312 657 
Q 1506 409 1894 409 
Q 2359 409 2629 706 
Q 2900 1003 2900 1516 
L 2900 3500 
L 3475 3500 
L 3475 0 
L 2900 0 
L 2900 538 
Q 2691 219 2414 64 
Q 2138 -91 1772 -91 
Q 1169 -91 856 284 
Q 544 659 544 1381 
z
M 1991 3584 
L 1991 3584 
z
" transform="scale(0.015625)"/>
       <path id="DejaVuSans-61" d="M 2194 1759 
Q 1497 1759 1228 1600 
Q 959 1441 959 1056 
Q 959 750 1161 570 
Q 1363 391 1709 391 
Q 2188 391 2477 730 
Q 2766 1069 2766 1631 
L 2766 1759 
L 2194 1759 
z
M 3341 1997 
L 3341 0 
L 2766 0 
L 2766 531 
Q 2569 213 2275 61 
Q 1981 -91 1556 -91 
Q 1019 -91 701 211 
Q 384 513 384 1019 
Q 384 1609 779 1909 
Q 1175 2209 1959 2209 
L 2766 2209 
L 2766 2266 
Q 2766 2663 2505 2880 
Q 2244 3097 1772 3097 
Q 1472 3097 1187 3025 
Q 903 2953 641 2809 
L 641 3341 
Q 956 3463 1253 3523 
Q 1550 3584 1831 3584 
Q 2591 3584 2966 3190 
Q 3341 2797 3341 1997 
z
" transform="scale(0.015625)"/>
       <path id="DejaVuSans-6c" d="M 603 4863 
L 1178 4863 
L 1178 0 
L 603 0 
L 603 4863 
z
" transform="scale(0.015625)"/>
       <path id="DejaVuSans-56" d="M 1831 0 
L 50 4666 
L 709 4666 
L 2188 738 
L 3669 4666 
L 4325 4666 
L 2547 0 
L 1831 0 
z
" transform="scale(0.015625)"/>
       <path id="DejaVuSans-65" d="M 3597 1894 
L 3597 1613 
L 953 1613 
Q 991 1019 1311 708 
Q 1631 397 2203 397 
Q 2534 397 2845 478 
Q 3156 559 3463 722 
L 3463 178 
Q 3153 47 2828 -22 
Q 2503 -91 2169 -91 
Q 1331 -91 842 396 
Q 353 884 353 1716 
Q 353 2575 817 3079 
Q 1281 3584 2069 3584 
Q 2775 3584 3186 3129 
Q 3597 2675 3597 1894 
z
M 3022 2063 
Q 3016 2534 2758 2815 
Q 2500 3097 2075 3097 
Q 1594 3097 1305 2825 
Q 1016 2553 972 2059 
L 3022 2063 
z
" transform="scale(0.015625)"/>
       <path id="DejaVuSans-73" d="M 2834 3397 
L 2834 2853 
Q 2591 2978 2328 3040 
Q 2066 3103 1784 3103 
Q 1356 3103 1142 2972 
Q 928 2841 928 2578 
Q 928 2378 1081 2264 
Q 1234 2150 1697 2047 
L 1894 2003 
Q 2506 1872 2764 1633 
Q 3022 1394 3022 966 
Q 3022 478 2636 193 
Q 2250 -91 1575 -91 
Q 1294 -91 989 -36 
Q 684 19 347 128 
L 347 722 
Q 666 556 975 473 
Q 1284 391 1588 391 
Q 1994 391 2212 530 
Q 2431 669 2431 922 
Q 2431 1156 2273 1281 
Q 2116 1406 1581 1522 
L 1381 1569 
Q 847 1681 609 1914 
Q 372 2147 372 2553 
Q 372 3047 722 3315 
Q 1072 3584 1716 3584 
Q 2034 3584 2315 3537 
Q 2597 3491 2834 3397 
z
" transform="scale(0.015625)"/>
      </defs>
      <use xlink:href="#DejaVuSans-4c"/>
      <use xlink:href="#DejaVuSans-6f" transform="translate(53.962891 0)"/>
      <use xlink:href="#DejaVuSans-67" transform="translate(115.144531 0)"/>
      <use xlink:href="#DejaVuSans-31" transform="translate(178.621094 0)"/>
      <use xlink:href="#DejaVuSans-30" transform="translate(242.244141 0)"/>
      <use xlink:href="#DejaVuSans-20" transform="translate(305.867188 0)"/>
      <use xlink:href="#DejaVuSans-6f" transform="translate(337.654297 0)"/>
      <use xlink:href="#DejaVuSans-66" transform="translate(398.835938 0)"/>
      <use xlink:href="#DejaVuSans-20" transform="translate(434.041016 0)"/>
      <use xlink:href="#DejaVuSans-41" transform="translate(465.828125 0)"/>
      <use xlink:href="#DejaVuSans-63" transform="translate(532.486328 0)"/>
      <use xlink:href="#DejaVuSans-74" transform="translate(587.466797 0)"/>
      <use xlink:href="#DejaVuSans-75" transform="translate(626.675781 0)"/>
      <use xlink:href="#DejaVuSans-61" transform="translate(690.054688 0)"/>
      <use xlink:href="#DejaVuSans-6c" transform="translate(751.333984 0)"/>
      <use xlink:href="#DejaVuSans-20" transform="translate(779.117188 0)"/>
      <use xlink:href="#DejaVuSans-56" transform="translate(810.904297 0)"/>
      <use xlink:href="#DejaVuSans-61" transform="translate(871.5625 0)"/>
      <use xlink:href="#DejaVuSans-6c" transform="translate(932.841797 0)"/>
      <use xlink:href="#DejaVuSans-75" transform="translate(960.625 0)"/>
      <use xlink:href="#DejaVuSans-65" transform="translate(1024.003906 0)"/>
      <use xlink:href="#DejaVuSans-73" transform="translate(1085.527344 0)"/>
     </g>
    </g>
   </g>
   <g id="matplotlib.axis_2">
    <g id="ytick_1">
     <g id="line2d_17">
      <defs>
       <path id="mff54747fff" d="M 0 0 
L -3.5 0 
" style="stroke: #000000; stroke-width: 1.5"/>
      </defs>
      <g>
       <use xlink:href="#mff54747fff" x="56.389375" y="275.171575" style="stroke: #000000; stroke-width: 1.5"/>
      </g>
     </g>
     <g id="text_4">
      <!-- $\mathdefault{10^{1}}$ -->
      <g transform="translate(24.749375 280.490481) scale(0.14 -0.14)">
       <use xlink:href="#DejaVuSans-31" transform="translate(0 0.684375)"/>
       <use xlink:href="#DejaVuSans-30" transform="translate(63.623047 0.684375)"/>
       <use xlink:href="#DejaVuSans-31" transform="translate(128.203125 38.965625) scale(0.7)"/>
      </g>
     </g>
    </g>
    <g id="ytick_2">
     <g id="line2d_18">
      <g>
       <use xlink:href="#mff54747fff" x="56.389375" y="93.649752" style="stroke: #000000; stroke-width: 1.5"/>
      </g>
     </g>
     <g id="text_5">
      <!-- $\mathdefault{10^{2}}$ -->
      <g transform="translate(24.749375 98.968658) scale(0.14 -0.14)">
       <use xlink:href="#DejaVuSans-31" transform="translate(0 0.765625)"/>
       <use xlink:href="#DejaVuSans-30" transform="translate(63.623047 0.765625)"/>
       <use xlink:href="#DejaVuSans-32" transform="translate(128.203125 39.046875) scale(0.7)"/>
      </g>
     </g>
    </g>
    <g id="ytick_3">
     <g id="line2d_19">
      <defs>
       <path id="me274a4984e" d="M 0 0 
L -2 0 
" style="stroke: #000000; stroke-width: 1.5"/>
      </defs>
      <g>
       <use xlink:href="#me274a4984e" x="56.389375" y="347.406371" style="stroke: #000000; stroke-width: 1.5"/>
      </g>
     </g>
    </g>
    <g id="ytick_4">
     <g id="line2d_20">
      <g>
       <use xlink:href="#me274a4984e" x="56.389375" y="329.815089" style="stroke: #000000; stroke-width: 1.5"/>
      </g>
     </g>
    </g>
    <g id="ytick_5">
     <g id="line2d_21">
      <g>
       <use xlink:href="#me274a4984e" x="56.389375" y="315.441965" style="stroke: #000000; stroke-width: 1.5"/>
      </g>
     </g>
    </g>
    <g id="ytick_6">
     <g id="line2d_22">
      <g>
       <use xlink:href="#me274a4984e" x="56.389375" y="303.289661" style="stroke: #000000; stroke-width: 1.5"/>
      </g>
     </g>
    </g>
    <g id="ytick_7">
     <g id="line2d_23">
      <g>
       <use xlink:href="#me274a4984e" x="56.389375" y="292.762857" style="stroke: #000000; stroke-width: 1.5"/>
      </g>
     </g>
    </g>
    <g id="ytick_8">
     <g id="line2d_24">
      <g>
       <use xlink:href="#me274a4984e" x="56.389375" y="283.477558" style="stroke: #000000; stroke-width: 1.5"/>
      </g>
     </g>
    </g>
    <g id="ytick_9">
     <g id="line2d_25">
      <g>
       <use xlink:href="#me274a4984e" x="56.389375" y="220.528062" style="stroke: #000000; stroke-width: 1.5"/>
      </g>
     </g>
    </g>
    <g id="ytick_10">
     <g id="line2d_26">
      <g>
       <use xlink:href="#me274a4984e" x="56.389375" y="188.563655" style="stroke: #000000; stroke-width: 1.5"/>
      </g>
     </g>
    </g>
    <g id="ytick_11">
     <g id="line2d_27">
      <g>
       <use xlink:href="#me274a4984e" x="56.389375" y="165.884548" style="stroke: #000000; stroke-width: 1.5"/>
      </g>
     </g>
    </g>
    <g id="ytick_12">
     <g id="line2d_28">
      <g>
       <use xlink:href="#me274a4984e" x="56.389375" y="148.293266" style="stroke: #000000; stroke-width: 1.5"/>
      </g>
     </g>
    </g>
    <g id="ytick_13">
     <g id="line2d_29">
      <g>
       <use xlink:href="#me274a4984e" x="56.389375" y="133.920142" style="stroke: #000000; stroke-width: 1.5"/>
      </g>
     </g>
    </g>
    <g id="ytick_14">
     <g id="line2d_30">
      <g>
       <use xlink:href="#me274a4984e" x="56.389375" y="121.767838" style="stroke: #000000; stroke-width: 1.5"/>
      </g>
     </g>
    </g>
    <g id="ytick_15">
     <g id="line2d_31">
      <g>
       <use xlink:href="#me274a4984e" x="56.389375" y="111.241034" style="stroke: #000000; stroke-width: 1.5"/>
      </g>
     </g>
    </g>
    <g id="ytick_16">
     <g id="line2d_32">
      <g>
       <use xlink:href="#me274a4984e" x="56.389375" y="101.955735" style="stroke: #000000; stroke-width: 1.5"/>
      </g>
     </g>
    </g>
    <g id="text_6">
     <!-- Log10 of Predicted Values -->
     <g transform="translate(17.837813 308.656312) rotate(-90) scale(0.14 -0.14)">
      <defs>
       <path id="DejaVuSans-50" d="M 1259 4147 
L 1259 2394 
L 2053 2394 
Q 2494 2394 2734 2622 
Q 2975 2850 2975 3272 
Q 2975 3691 2734 3919 
Q 2494 4147 2053 4147 
L 1259 4147 
z
M 628 4666 
L 2053 4666 
Q 2838 4666 3239 4311 
Q 3641 3956 3641 3272 
Q 3641 2581 3239 2228 
Q 2838 1875 2053 1875 
L 1259 1875 
L 1259 0 
L 628 0 
L 628 4666 
z
" transform="scale(0.015625)"/>
       <path id="DejaVuSans-72" d="M 2631 2963 
Q 2534 3019 2420 3045 
Q 2306 3072 2169 3072 
Q 1681 3072 1420 2755 
Q 1159 2438 1159 1844 
L 1159 0 
L 581 0 
L 581 3500 
L 1159 3500 
L 1159 2956 
Q 1341 3275 1631 3429 
Q 1922 3584 2338 3584 
Q 2397 3584 2469 3576 
Q 2541 3569 2628 3553 
L 2631 2963 
z
" transform="scale(0.015625)"/>
       <path id="DejaVuSans-64" d="M 2906 2969 
L 2906 4863 
L 3481 4863 
L 3481 0 
L 2906 0 
L 2906 525 
Q 2725 213 2448 61 
Q 2172 -91 1784 -91 
Q 1150 -91 751 415 
Q 353 922 353 1747 
Q 353 2572 751 3078 
Q 1150 3584 1784 3584 
Q 2172 3584 2448 3432 
Q 2725 3281 2906 2969 
z
M 947 1747 
Q 947 1113 1208 752 
Q 1469 391 1925 391 
Q 2381 391 2643 752 
Q 2906 1113 2906 1747 
Q 2906 2381 2643 2742 
Q 2381 3103 1925 3103 
Q 1469 3103 1208 2742 
Q 947 2381 947 1747 
z
" transform="scale(0.015625)"/>
       <path id="DejaVuSans-69" d="M 603 3500 
L 1178 3500 
L 1178 0 
L 603 0 
L 603 3500 
z
M 603 4863 
L 1178 4863 
L 1178 4134 
L 603 4134 
L 603 4863 
z
" transform="scale(0.015625)"/>
      </defs>
      <use xlink:href="#DejaVuSans-4c"/>
      <use xlink:href="#DejaVuSans-6f" transform="translate(53.962891 0)"/>
      <use xlink:href="#DejaVuSans-67" transform="translate(115.144531 0)"/>
      <use xlink:href="#DejaVuSans-31" transform="translate(178.621094 0)"/>
      <use xlink:href="#DejaVuSans-30" transform="translate(242.244141 0)"/>
      <use xlink:href="#DejaVuSans-20" transform="translate(305.867188 0)"/>
      <use xlink:href="#DejaVuSans-6f" transform="translate(337.654297 0)"/>
      <use xlink:href="#DejaVuSans-66" transform="translate(398.835938 0)"/>
      <use xlink:href="#DejaVuSans-20" transform="translate(434.041016 0)"/>
      <use xlink:href="#DejaVuSans-50" transform="translate(465.828125 0)"/>
      <use xlink:href="#DejaVuSans-72" transform="translate(524.380859 0)"/>
      <use xlink:href="#DejaVuSans-65" transform="translate(563.244141 0)"/>
      <use xlink:href="#DejaVuSans-64" transform="translate(624.767578 0)"/>
      <use xlink:href="#DejaVuSans-69" transform="translate(688.244141 0)"/>
      <use xlink:href="#DejaVuSans-63" transform="translate(716.027344 0)"/>
      <use xlink:href="#DejaVuSans-74" transform="translate(771.007812 0)"/>
      <use xlink:href="#DejaVuSans-65" transform="translate(810.216797 0)"/>
      <use xlink:href="#DejaVuSans-64" transform="translate(871.740234 0)"/>
      <use xlink:href="#DejaVuSans-20" transform="translate(935.216797 0)"/>
      <use xlink:href="#DejaVuSans-56" transform="translate(967.003906 0)"/>
      <use xlink:href="#DejaVuSans-61" transform="translate(1027.662109 0)"/>
      <use xlink:href="#DejaVuSans-6c" transform="translate(1088.941406 0)"/>
      <use xlink:href="#DejaVuSans-75" transform="translate(1116.724609 0)"/>
      <use xlink:href="#DejaVuSans-65" transform="translate(1180.103516 0)"/>
      <use xlink:href="#DejaVuSans-73" transform="translate(1241.626953 0)"/>
     </g>
    </g>
   </g>
   <g id="line2d_33">
    <path d="M 70.049011 354.690176 
L 343.241739 81.497449 
" clip-path="url(#peefba5136b)" style="fill: none; stroke-dasharray: 5.55,2.4; stroke-dashoffset: 0; stroke: #000000; stroke-width: 1.5"/>
   </g>
   <g id="patch_3">
    <path d="M 56.389375 368.349812 
L 56.389375 67.837812 
" style="fill: none; stroke: #000000; stroke-width: 1.5; stroke-linejoin: miter; stroke-linecap: square"/>
   </g>
   <g id="patch_4">
    <path d="M 356.901375 368.349812 
L 356.901375 67.837812 
" style="fill: none; stroke: #000000; stroke-width: 1.5; stroke-linejoin: miter; stroke-linecap: square"/>
   </g>
   <g id="patch_5">
    <path d="M 56.389375 368.349812 
L 356.901375 368.349812 
" style="fill: none; stroke: #000000; stroke-width: 1.5; stroke-linejoin: miter; stroke-linecap: square"/>
   </g>
   <g id="patch_6">
    <path d="M 56.389375 67.837812 
L 356.901375 67.837812 
" style="fill: none; stroke: #000000; stroke-width: 1.5; stroke-linejoin: miter; stroke-linecap: square"/>
   </g>
   <g id="text_7">
    <!-- production_rate predictions for all products -->
    <g transform="translate(55.308656 17.837812) scale(0.14 -0.14)">
     <defs>
      <path id="DejaVuSans-70" d="M 1159 525 
L 1159 -1331 
L 581 -1331 
L 581 3500 
L 1159 3500 
L 1159 2969 
Q 1341 3281 1617 3432 
Q 1894 3584 2278 3584 
Q 2916 3584 3314 3078 
Q 3713 2572 3713 1747 
Q 3713 922 3314 415 
Q 2916 -91 2278 -91 
Q 1894 -91 1617 61 
Q 1341 213 1159 525 
z
M 3116 1747 
Q 3116 2381 2855 2742 
Q 2594 3103 2138 3103 
Q 1681 3103 1420 2742 
Q 1159 2381 1159 1747 
Q 1159 1113 1420 752 
Q 1681 391 2138 391 
Q 2594 391 2855 752 
Q 3116 1113 3116 1747 
z
" transform="scale(0.015625)"/>
      <path id="DejaVuSans-6e" d="M 3513 2113 
L 3513 0 
L 2938 0 
L 2938 2094 
Q 2938 2591 2744 2837 
Q 2550 3084 2163 3084 
Q 1697 3084 1428 2787 
Q 1159 2491 1159 1978 
L 1159 0 
L 581 0 
L 581 3500 
L 1159 3500 
L 1159 2956 
Q 1366 3272 1645 3428 
Q 1925 3584 2291 3584 
Q 2894 3584 3203 3211 
Q 3513 2838 3513 2113 
z
" transform="scale(0.015625)"/>
      <path id="DejaVuSans-5f" d="M 3263 -1063 
L 3263 -1509 
L -63 -1509 
L -63 -1063 
L 3263 -1063 
z
" transform="scale(0.015625)"/>
     </defs>
     <use xlink:href="#DejaVuSans-70"/>
     <use xlink:href="#DejaVuSans-72" transform="translate(63.476562 0)"/>
     <use xlink:href="#DejaVuSans-6f" transform="translate(102.339844 0)"/>
     <use xlink:href="#DejaVuSans-64" transform="translate(163.521484 0)"/>
     <use xlink:href="#DejaVuSans-75" transform="translate(226.998047 0)"/>
     <use xlink:href="#DejaVuSans-63" transform="translate(290.376953 0)"/>
     <use xlink:href="#DejaVuSans-74" transform="translate(345.357422 0)"/>
     <use xlink:href="#DejaVuSans-69" transform="translate(384.566406 0)"/>
     <use xlink:href="#DejaVuSans-6f" transform="translate(412.349609 0)"/>
     <use xlink:href="#DejaVuSans-6e" transform="translate(473.53125 0)"/>
     <use xlink:href="#DejaVuSans-5f" transform="translate(536.910156 0)"/>
     <use xlink:href="#DejaVuSans-72" transform="translate(586.910156 0)"/>
     <use xlink:href="#DejaVuSans-61" transform="translate(628.023438 0)"/>
     <use xlink:href="#DejaVuSans-74" transform="translate(689.302734 0)"/>
     <use xlink:href="#DejaVuSans-65" transform="translate(728.511719 0)"/>
     <use xlink:href="#DejaVuSans-20" transform="translate(790.035156 0)"/>
     <use xlink:href="#DejaVuSans-70" transform="translate(821.822266 0)"/>
     <use xlink:href="#DejaVuSans-72" transform="translate(885.298828 0)"/>
     <use xlink:href="#DejaVuSans-65" transform="translate(924.162109 0)"/>
     <use xlink:href="#DejaVuSans-64" transform="translate(985.685547 0)"/>
     <use xlink:href="#DejaVuSans-69" transform="translate(1049.162109 0)"/>
     <use xlink:href="#DejaVuSans-63" transform="translate(1076.945312 0)"/>
     <use xlink:href="#DejaVuSans-74" transform="translate(1131.925781 0)"/>
     <use xlink:href="#DejaVuSans-69" transform="translate(1171.134766 0)"/>
     <use xlink:href="#DejaVuSans-6f" transform="translate(1198.917969 0)"/>
     <use xlink:href="#DejaVuSans-6e" transform="translate(1260.099609 0)"/>
     <use xlink:href="#DejaVuSans-73" transform="translate(1323.478516 0)"/>
     <use xlink:href="#DejaVuSans-20" transform="translate(1375.578125 0)"/>
     <use xlink:href="#DejaVuSans-66" transform="translate(1407.365234 0)"/>
     <use xlink:href="#DejaVuSans-6f" transform="translate(1442.570312 0)"/>
     <use xlink:href="#DejaVuSans-72" transform="translate(1503.751953 0)"/>
     <use xlink:href="#DejaVuSans-20" transform="translate(1544.865234 0)"/>
     <use xlink:href="#DejaVuSans-61" transform="translate(1576.652344 0)"/>
     <use xlink:href="#DejaVuSans-6c" transform="translate(1637.931641 0)"/>
     <use xlink:href="#DejaVuSans-6c" transform="translate(1665.714844 0)"/>
     <use xlink:href="#DejaVuSans-20" transform="translate(1693.498047 0)"/>
     <use xlink:href="#DejaVuSans-70" transform="translate(1725.285156 0)"/>
     <use xlink:href="#DejaVuSans-72" transform="translate(1788.761719 0)"/>
     <use xlink:href="#DejaVuSans-6f" transform="translate(1827.625 0)"/>
     <use xlink:href="#DejaVuSans-64" transform="translate(1888.806641 0)"/>
     <use xlink:href="#DejaVuSans-75" transform="translate(1952.283203 0)"/>
     <use xlink:href="#DejaVuSans-63" transform="translate(2015.662109 0)"/>
     <use xlink:href="#DejaVuSans-74" transform="translate(2070.642578 0)"/>
     <use xlink:href="#DejaVuSans-73" transform="translate(2109.851562 0)"/>
    </g>
   </g>
   <g id="legend_1">
    <g id="patch_7">
     <path d="M 366.701375 181.784687 
L 497.758875 181.784687 
Q 500.558875 181.784687 500.558875 178.984687 
L 500.558875 77.637812 
Q 500.558875 74.837812 497.758875 74.837812 
L 366.701375 74.837812 
Q 363.901375 74.837812 363.901375 77.637812 
L 363.901375 178.984687 
Q 363.901375 181.784687 366.701375 181.784687 
z
" style="fill: #ffffff; opacity: 0.8; stroke: #cccccc; stroke-linejoin: miter"/>
    </g>
    <g id="PathCollection_5">
     <g>
      <use xlink:href="#mf90a040284" x="383.501375" y="87.400625" style="fill: #1f77b4; fill-opacity: 0.6; stroke: #1f77b4; stroke-opacity: 0.6"/>
     </g>
    </g>
    <g id="text_8">
     <!-- sucrose -->
     <g transform="translate(408.701375 91.075625) scale(0.14 -0.14)">
      <use xlink:href="#DejaVuSans-73"/>
      <use xlink:href="#DejaVuSans-75" transform="translate(52.099609 0)"/>
      <use xlink:href="#DejaVuSans-63" transform="translate(115.478516 0)"/>
      <use xlink:href="#DejaVuSans-72" transform="translate(170.458984 0)"/>
      <use xlink:href="#DejaVuSans-6f" transform="translate(209.322266 0)"/>
      <use xlink:href="#DejaVuSans-73" transform="translate(270.503906 0)"/>
      <use xlink:href="#DejaVuSans-65" transform="translate(322.603516 0)"/>
     </g>
    </g>
    <g id="PathCollection_6">
     <g>
      <use xlink:href="#m27f85ed5e4" x="383.501375" y="107.95" style="fill: #8c564b; fill-opacity: 0.6; stroke: #8c564b; stroke-opacity: 0.6"/>
     </g>
    </g>
    <g id="text_9">
     <!-- myo-inositol -->
     <g transform="translate(408.701375 111.625) scale(0.14 -0.14)">
      <defs>
       <path id="DejaVuSans-6d" d="M 3328 2828 
Q 3544 3216 3844 3400 
Q 4144 3584 4550 3584 
Q 5097 3584 5394 3201 
Q 5691 2819 5691 2113 
L 5691 0 
L 5113 0 
L 5113 2094 
Q 5113 2597 4934 2840 
Q 4756 3084 4391 3084 
Q 3944 3084 3684 2787 
Q 3425 2491 3425 1978 
L 3425 0 
L 2847 0 
L 2847 2094 
Q 2847 2600 2669 2842 
Q 2491 3084 2119 3084 
Q 1678 3084 1418 2786 
Q 1159 2488 1159 1978 
L 1159 0 
L 581 0 
L 581 3500 
L 1159 3500 
L 1159 2956 
Q 1356 3278 1631 3431 
Q 1906 3584 2284 3584 
Q 2666 3584 2933 3390 
Q 3200 3197 3328 2828 
z
" transform="scale(0.015625)"/>
       <path id="DejaVuSans-79" d="M 2059 -325 
Q 1816 -950 1584 -1140 
Q 1353 -1331 966 -1331 
L 506 -1331 
L 506 -850 
L 844 -850 
Q 1081 -850 1212 -737 
Q 1344 -625 1503 -206 
L 1606 56 
L 191 3500 
L 800 3500 
L 1894 763 
L 2988 3500 
L 3597 3500 
L 2059 -325 
z
" transform="scale(0.015625)"/>
       <path id="DejaVuSans-2d" d="M 313 2009 
L 1997 2009 
L 1997 1497 
L 313 1497 
L 313 2009 
z
" transform="scale(0.015625)"/>
      </defs>
      <use xlink:href="#DejaVuSans-6d"/>
      <use xlink:href="#DejaVuSans-79" transform="translate(97.412109 0)"/>
      <use xlink:href="#DejaVuSans-6f" transform="translate(156.591797 0)"/>
      <use xlink:href="#DejaVuSans-2d" transform="translate(219.648438 0)"/>
      <use xlink:href="#DejaVuSans-69" transform="translate(255.732422 0)"/>
      <use xlink:href="#DejaVuSans-6e" transform="translate(283.515625 0)"/>
      <use xlink:href="#DejaVuSans-6f" transform="translate(346.894531 0)"/>
      <use xlink:href="#DejaVuSans-73" transform="translate(408.076172 0)"/>
      <use xlink:href="#DejaVuSans-69" transform="translate(460.175781 0)"/>
      <use xlink:href="#DejaVuSans-74" transform="translate(487.958984 0)"/>
      <use xlink:href="#DejaVuSans-6f" transform="translate(527.167969 0)"/>
      <use xlink:href="#DejaVuSans-6c" transform="translate(588.349609 0)"/>
     </g>
    </g>
    <g id="line2d_34">
     <path d="M 369.501375 127.274375 
L 383.501375 127.274375 
L 397.501375 127.274375 
" style="fill: none; stroke-dasharray: 5.55,2.4; stroke-dashoffset: 0; stroke: #000000; stroke-width: 1.5"/>
    </g>
    <g id="text_10">
     <!-- y=x -->
     <g transform="translate(408.701375 132.174375) scale(0.14 -0.14)">
      <defs>
       <path id="DejaVuSans-3d" d="M 678 2906 
L 4684 2906 
L 4684 2381 
L 678 2381 
L 678 2906 
z
M 678 1631 
L 4684 1631 
L 4684 1100 
L 678 1100 
L 678 1631 
z
" transform="scale(0.015625)"/>
       <path id="DejaVuSans-78" d="M 3513 3500 
L 2247 1797 
L 3578 0 
L 2900 0 
L 1881 1375 
L 863 0 
L 184 0 
L 1544 1831 
L 300 3500 
L 978 3500 
L 1906 2253 
L 2834 3500 
L 3513 3500 
z
" transform="scale(0.015625)"/>
      </defs>
      <use xlink:href="#DejaVuSans-79"/>
      <use xlink:href="#DejaVuSans-3d" transform="translate(59.179688 0)"/>
      <use xlink:href="#DejaVuSans-78" transform="translate(142.96875 0)"/>
     </g>
    </g>
    <g id="line2d_35">
     <path d="M 369.501375 147.82375 
L 383.501375 147.82375 
L 397.501375 147.82375 
" style="fill: none; stroke: #ffffff; stroke-width: 1.5; stroke-linecap: square"/>
     <defs>
      <path id="mb7ec850d68" d="M 0 4 
C 1.060812 4 2.078319 3.578535 2.828427 2.828427 
C 3.578535 2.078319 4 1.060812 4 0 
C 4 -1.060812 3.578535 -2.078319 2.828427 -2.828427 
C 2.078319 -3.578535 1.060812 -4 0 -4 
C -1.060812 -4 -2.078319 -3.578535 -2.828427 -2.828427 
C -3.578535 -2.078319 -4 -1.060812 -4 0 
C -4 1.060812 -3.578535 2.078319 -2.828427 2.828427 
C -2.078319 3.578535 -1.060812 4 0 4 
z
" style="stroke: #ffffff"/>
     </defs>
     <g>
      <use xlink:href="#mb7ec850d68" x="383.501375" y="147.82375" style="fill: #808080; stroke: #ffffff"/>
     </g>
    </g>
    <g id="text_11">
     <!-- after TL -->
     <g transform="translate(408.701375 152.72375) scale(0.14 -0.14)">
      <defs>
       <path id="DejaVuSans-54" d="M -19 4666 
L 3928 4666 
L 3928 4134 
L 2272 4134 
L 2272 0 
L 1638 0 
L 1638 4134 
L -19 4134 
L -19 4666 
z
" transform="scale(0.015625)"/>
      </defs>
      <use xlink:href="#DejaVuSans-61"/>
      <use xlink:href="#DejaVuSans-66" transform="translate(61.279297 0)"/>
      <use xlink:href="#DejaVuSans-74" transform="translate(94.734375 0)"/>
      <use xlink:href="#DejaVuSans-65" transform="translate(133.943359 0)"/>
      <use xlink:href="#DejaVuSans-72" transform="translate(195.466797 0)"/>
      <use xlink:href="#DejaVuSans-20" transform="translate(236.580078 0)"/>
      <use xlink:href="#DejaVuSans-54" transform="translate(268.367188 0)"/>
      <use xlink:href="#DejaVuSans-4c" transform="translate(329.451172 0)"/>
     </g>
    </g>
    <g id="line2d_36">
     <path d="M 369.501375 168.373125 
L 383.501375 168.373125 
L 397.501375 168.373125 
" style="fill: none; stroke: #ffffff; stroke-width: 1.5; stroke-linecap: square"/>
     <defs>
      <path id="m992216b956" d="M -4 4 
L 4 -4 
M -4 -4 
L 4 4 
" style="stroke: #808080"/>
     </defs>
     <g>
      <use xlink:href="#m992216b956" x="383.501375" y="168.373125" style="fill: #ffffff; stroke: #808080"/>
     </g>
    </g>
    <g id="text_12">
     <!-- before TL -->
     <g transform="translate(408.701375 173.273125) scale(0.14 -0.14)">
      <defs>
       <path id="DejaVuSans-62" d="M 3116 1747 
Q 3116 2381 2855 2742 
Q 2594 3103 2138 3103 
Q 1681 3103 1420 2742 
Q 1159 2381 1159 1747 
Q 1159 1113 1420 752 
Q 1681 391 2138 391 
Q 2594 391 2855 752 
Q 3116 1113 3116 1747 
z
M 1159 2969 
Q 1341 3281 1617 3432 
Q 1894 3584 2278 3584 
Q 2916 3584 3314 3078 
Q 3713 2572 3713 1747 
Q 3713 922 3314 415 
Q 2916 -91 2278 -91 
Q 1894 -91 1617 61 
Q 1341 213 1159 525 
L 1159 0 
L 581 0 
L 581 4863 
L 1159 4863 
L 1159 2969 
z
" transform="scale(0.015625)"/>
      </defs>
      <use xlink:href="#DejaVuSans-62"/>
      <use xlink:href="#DejaVuSans-65" transform="translate(63.476562 0)"/>
      <use xlink:href="#DejaVuSans-66" transform="translate(125 0)"/>
      <use xlink:href="#DejaVuSans-6f" transform="translate(160.205078 0)"/>
      <use xlink:href="#DejaVuSans-72" transform="translate(221.386719 0)"/>
      <use xlink:href="#DejaVuSans-65" transform="translate(260.25 0)"/>
      <use xlink:href="#DejaVuSans-20" transform="translate(321.773438 0)"/>
      <use xlink:href="#DejaVuSans-54" transform="translate(353.560547 0)"/>
      <use xlink:href="#DejaVuSans-4c" transform="translate(414.644531 0)"/>
     </g>
    </g>
   </g>
  </g>
 </g>
 <defs>
  <clipPath id="peefba5136b">
   <rect x="56.389375" y="67.837812" width="300.512" height="300.512"/>
  </clipPath>
 </defs>
</svg>
